<!-- Generator: Adobe Illustrator 21.0.2, SVG Export Plug-In  -->
<svg version="1.1"
	 xmlns="http://www.w3.org/2000/svg" xmlns:xlink="http://www.w3.org/1999/xlink" xmlns:a="http://ns.adobe.com/AdobeSVGViewerExtensions/3.0/"
	 x="0px" y="0px" width="193px" height="106px" viewBox="0 0 193 106" style="enable-background:new 0 0 193 106;"
	 xml:space="preserve">
<style type="text/css">
	.st0{fill:#F8F8F8;}
	.st1{fill:#E30613;}
</style>
<defs>
</defs>
<rect class="st0" width="193" height="106"/>
<g>
	<g>
		<rect x="63.465" y="59.276" width="2.15" height="1.951"/>
		<path d="M49.115,60.226h-2.495l-4.117,11.192h2.562l0.854-3.153h4.197l0.978,3.176h2.545L49.115,60.226z M46.583,66.428
			l1.316-3.448l1.469,3.448H46.583z"/>
		<path d="M54.939,71.418v-7.974c0,0,3.752,0,4.551,0c0.802,0,2.46,0.441,2.46,2.236c0,1.793,0,5.712,0,5.712h-2.07
			c0,0,0-5.188,0-5.519c0-0.33-0.439-0.773-0.855-0.773c-0.419,0-2.101,0-2.101,0v6.347L54.939,71.418z"/>
		<rect x="63.465" y="63.437" width="2.15" height="8.009"/>
		<path d="M75.076,63.437c-0.611,0-7.999,0-7.999,0v7.981h1.853v-6.277h2.555v6.277h1.914v-6.277c0,0,0.851,0,1.567,0
			c0.72,0,0.986,0.751,0.986,1.355c0,0.609,0,4.921,0,4.921h1.934c0,0,0-5.22,0-5.972C77.887,64.13,76.702,63.437,75.076,63.437z"/>
		<path d="M83.788,63.4c-1.529,0-4.23,0.014-4.23,0.014v1.599c0,0,3.211,0,3.974,0c0.885,0,1.088,0.473,1.106,1.469H81.68
			c-1.851,0-2.593,1.275-2.593,2.552c0,1.27,0.872,2.401,2.593,2.401h5.089c0,0,0-3.091,0-4.754
			C86.769,64.253,85.931,63.4,83.788,63.4z M84.576,69.842h-2.194c-0.742,0-1.111-0.411-1.111-0.816
			c0-0.404,0.316-0.808,1.111-0.808h2.194V69.842z"/>
		<path d="M109.698,63.4c-1.531,0-4.236,0.014-4.236,0.014v1.599c0,0,3.219,0,3.975,0c0.89,0,1.086,0.473,1.1,1.469h-2.955
			c-1.847,0-2.591,1.275-2.591,2.552c0,1.27,0.874,2.401,2.591,2.401h5.098c0,0,0-3.091,0-4.754
			C112.679,64.253,111.837,63.4,109.698,63.4z M110.483,69.842h-2.197c-0.733,0-1.112-0.411-1.112-0.816
			c0-0.404,0.322-0.808,1.112-0.808h2.197V69.842z"/>
		<rect x="88.117" y="60.198" width="2.3" height="11.247"/>
		<path d="M103.999,60.234l-0.045,2.04c0,0-2.505,0-3.761,0c-1.255,0-2.377,1.142-2.377,3.625c0,2.24,0.988,3.654,2.647,3.654
			c1.647,0,3.656,0,3.656,0v1.857c0,0-3.474,0-4.937,0c-1.473,0-3.838-1.985-3.838-5.508c0-3.518,2.158-5.658,4.371-5.658
			C101.928,60.244,103.999,60.234,103.999,60.234z"/>
		<path d="M118.226,63.388c-0.868,0-1.776,0.311-2.241,0.927v-0.929h-2.051v7.998h2.051v-5.871h2.241
			C118.226,65.514,118.226,64.245,118.226,63.388z"/>
		<path d="M123.431,64.962h2.508v-1.553c0,0-2.022,0-3.223,0c-1.659,0-3.681,1.908-3.681,4.048c0,2.135,1.46,3.984,3.623,3.984
			h3.281v-1.522h-3.147c-0.771,0-1.337-0.718-1.337-1.337h4.484v-2.019h-4.534C121.405,65.602,122.444,64.962,123.431,64.962z"/>
		<g>
			<path d="M103.359,76.272v8.061c0,0-3.753,0-4.551,0c-0.802,0-2.454-0.443-2.454-2.238c0-1.79,0-5.817,0-5.817h2.063
				c0,0,0,5.293,0,5.628c0,0.33,0.448,0.767,0.858,0.767c0.415,0,2.103,0,2.103,0v-6.391L103.359,76.272z"/>
			<path d="M111.768,76.328v1.578c0,0-1.593,0-2.585,0c-0.997,0-2.122,0.841-2.122,2.365c0,1.614,1.213,2.467,2.253,2.467
				c1.308,0,2.555,0,2.555,0v1.596c0,0-2.473,0-3.638,0c-1.477,0-3.307-1.551-3.307-4.086c0-2.537,1.708-3.906,3.461-3.906
				C110.139,76.343,111.768,76.328,111.768,76.328z"/>
			<path d="M76.018,76.275c-0.877,0-1.776,0.319-2.242,0.936v-0.919h-2.053v8.001h2.053v-5.874h2.242
				C76.018,78.418,76.018,77.132,76.018,76.275z"/>
			<path d="M66.47,73.091c-1.172,0-6.533,0-6.533,0v11.226h2.514v-3.573c0,0,2.571,0,4.172,0c1.614,0,3.795-1.277,3.795-3.968
				C70.419,73.965,67.645,73.091,66.47,73.091z M65.608,78.847c-0.6,0-2.312,0-3.156,0v-3.943c0.918,0,2.529,0,3.156,0
				c0.904,0,1.935,0.563,1.935,1.863C67.543,78.065,66.422,78.847,65.608,78.847z"/>
			<path d="M85.521,80.262c0,2.237-1.996,4.048-4.45,4.048c-2.462,0-4.456-1.812-4.456-4.048c0-2.238,1.994-4.054,4.456-4.054
				C83.524,76.208,85.521,78.023,85.521,80.262z M81.071,77.938c-1.135,0-2.056,1.04-2.056,2.323c0,1.283,0.921,2.325,2.056,2.325
				c1.135,0,2.051-1.042,2.051-2.325C83.121,78.978,82.206,77.938,81.071,77.938z"/>
			<path d="M92.744,73.07v3.227c0,0-0.27,0-2.159,0c-1.887,0-3.635,0.688-3.635,3.994c0,3.036,2.344,3.975,3.831,3.975
				c1.636,0,4.03,0,4.03,0V73.07H92.744z M91.097,82.574c-0.815,0-2.019-0.532-2.019-2.332c0-1.745,1.148-2.319,2.019-2.319
				c0.675,0,1.648,0,1.648,0v4.651C92.744,82.574,91.656,82.574,91.097,82.574z"/>
			<path d="M117.978,76.321h-1.92v-2.82h-2.022v2.82h-1.345v1.666h1.345c0,0,0,2.913,0,3.523c0,1.639,0.064,2.822,1.973,2.822
				c0.842,0,1.943,0,1.943,0s0-0.911,0-1.647c-1.442,0-1.894-0.091-1.894-0.906c0-0.651,0-3.792,0-3.792h1.92V76.321z"/>
			<path d="M125.632,76.292v1.623c0,0-3.679-0.037-4.359-0.037c-0.678,0-0.884,1.694,0.305,1.694c1.196,0,1.916,0,2.325,0
				c1.109,0,2.239,0.719,2.239,2.364c0,1.479-0.776,2.365-2.097,2.365c-0.95,0-5.115,0-5.115,0V82.76c0,0,3.513,0,4.229,0
				c1.035,0,1.178-1.647-0.1-1.647c-0.927,0-1.832,0-2.651,0c-0.822,0-1.77-1.246-1.77-2.52c0-1.295,0.785-2.301,2.22-2.301
				C121.785,76.292,125.632,76.292,125.632,76.292z"/>
		</g>
	</g>
	<g>
		<path class="st1" d="M43.741,41.384c0.798-0.667,21.942-16.743,23.296-17.694c1.524-1.071,3.269-0.971,7.126,1.943
			c2.788,2.105,11.608,8.977,13.258,10.036c-0.815-5.276,5.485-13.831,18.391-14.987l10.245,8.044c0,0-21.642-2.631-19.691,11.334
			c1.052,7.54,19.636,13.253,19.636,13.253H95.305L69.252,33.585l-12.75,9.618l2.08,1.809l9.206-0.003l10.407,8.239
			c0,0-21.391-0.005-22.344-0.005c-1.855,0-4.204-0.781-5.479-1.833c-1.274-1.05-6.6-5.372-7.537-6.38
			C41.814,43.931,42.443,42.45,43.741,41.384z"/>
		<g>
			<path class="st1" d="M125.908,60.876V28.299c0,0,8.208,0,10.786,0c4.611,0,9.035,4.267,9.035,8.506
				c0,3.699-3.081,8.429-9.239,8.429c-0.789,0-2.524,0-3.05,0c-1.162,1.22-7.764,7.965-7.764,7.965s9.929,0,10.799,0
				c9.22,0,16.955-7.904,16.939-16.191c-0.021-9.661-8.564-16.674-16.847-16.674c-2.519,0-9.683,0-9.683,0l-10.733,8.299
				l-0.05,24.591L125.908,60.876z"/>
			<path class="st1" d="M151.408,53.307c0-1.248,0.943-2.186,2.141-2.186c1.197,0,2.13,0.938,2.13,2.186
				c0,1.263-0.933,2.193-2.13,2.193C152.351,55.5,151.408,54.571,151.408,53.307z M153.549,55.939c1.44,0,2.662-1.112,2.662-2.632
				c0-1.512-1.221-2.624-2.662-2.624c-1.445,0-2.668,1.113-2.668,2.624C150.881,54.828,152.104,55.939,153.549,55.939z
				 M152.994,53.511h0.531l0.797,1.316h0.518l-0.86-1.338c0.44-0.05,0.785-0.29,0.785-0.836c0-0.595-0.354-0.858-1.069-0.858h-1.158
				v3.032h0.456V53.511z M152.994,53.125v-0.941h0.628c0.324,0,0.662,0.07,0.662,0.445c0,0.464-0.352,0.495-0.742,0.495H152.994z"/>
		</g>
	</g>
</g>
</svg>